<svg id="bsktCloud_Logo" data-name="bsktCloud Logo" xmlns="http://www.w3.org/2000/svg" viewBox="0 0 715.01 172.76"><defs><style>.cls-1{fill:#3b4b53;}</style></defs><path class="cls-1" d="M629.76,502.68c10.76-12.22,23.46-18.24,39.38-16.17,26.91,3.5,43.77,19,50.15,45.64a103.4,103.4,0,0,1,.71,45.54c-6.31,30.46-30.11,49.09-61.73,48.48-33.7-.64-56.92-22.5-60.14-56.56q-.87-9.21-.87-18.45.09-45.7,0-91.43c0-4.13,1.25-5.65,5.43-5.51,7.32.25,14.66.22,22,0,3.86-.11,5.27,1.17,5.22,5.17C629.64,473.83,629.76,488.26,629.76,502.68ZM688.9,557A70.68,70.68,0,0,0,687,540.21c-3.33-13.83-12.86-21.76-26.39-22.12-14.4-.38-24.64,6.84-28.54,20.71a65.19,65.19,0,0,0,0,36c3.87,13.65,14.08,20.9,28.1,20.59s23.5-8.11,26.87-22.09A70.28,70.28,0,0,0,688.9,557Z" transform="translate(-597.21 -454.19)"/><path class="cls-1" d="M792.17,626.9c-6.92.35-19.4-1.29-31.34-6-17.55-7-27.45-19.77-29.05-38.81-.31-3.68.72-5.13,4.58-5,7.83.23,15.67.17,23.49,0,3.14,0,4.76.58,5.23,4.22,1,7.56,6.44,11.62,13.16,13.46a71.39,71.39,0,0,0,39.42-.34c6-1.76,8.39-5.42,8.32-10.93a9.2,9.2,0,0,0-5.5-8.75c-5.19-2.62-10.81-3.18-16.46-3.56-11.29-.77-22.67-.92-33.62-4.23a58.16,58.16,0,0,1-10.63-4.23c-12.15-6.51-20.56-15.82-21.16-30.39-.63-15.45,5.61-27.52,18.67-35.77,14.62-9.24,30.87-10.73,47.63-9.16,9.19.86,18.09,2.88,26.16,7.59,13,7.57,20.64,18.44,21.2,33.87.13,3.58-.63,5.2-4.57,5.09-8-.23-16-.09-24,0-2.12,0-4.11,0-4.43-2.78-1.14-9.61-7.51-13.71-16.21-14.75-7.43-.88-15-1.25-22.2,1.55a18.67,18.67,0,0,0-6.75,4.15c-6,6.06-4.15,15.05,3.73,18.22,5,2,10.35,2.45,15.7,2.48,11.5.07,23,.28,34.2,3.23.48.12,1,.21,1.46.34,17.16,4.53,28.3,15.51,29.68,29.24,2,19.86-5.91,35.06-22.48,43.49C824.32,625.19,811.24,626.16,792.17,626.9Z" transform="translate(-597.21 -454.19)"/><path class="cls-1" d="M908,543.17c11.66-15.81,23.11-31.12,34.26-46.65,2.62-3.65,5.42-5.09,9.88-4.89,7.82.36,15.66.07,23.5.13,1.58,0,3.58-.68,4.55,1.13s-.78,3-1.71,4.3C967.05,513,955.62,528.72,944,544.35c-1.82,2.45-1.74,3.94,0,6.34q25.1,34.23,49.93,68.66c1.1,1.52,3.32,2.91,2.08,5.15-1.06,1.92-3.29,1.2-5,1.21-8.17,0-16.34-.13-24.5.09a7.48,7.48,0,0,1-7-3.58c-11.29-15.67-22.78-31.19-34.11-46.83-1.62-2.24-2.43-3.1-4.44-.25-3.64,5.17-7.64,10.08-11.62,15a8.74,8.74,0,0,0-1.78,6c.09,8.33-.09,16.67.1,25,.08,3.51-1.19,4.72-4.65,4.65-8-.16-16-.14-24,0-3.24.05-4.34-1.15-4.34-4.41q.12-81.24,0-162.5c0-3.5,1.15-4.73,4.6-4.66,7.83.16,15.67.18,23.5,0,3.73-.09,4.85,1.31,4.83,5-.16,27.49-.14,55-.16,82.49A6.55,6.55,0,0,0,908,543.17Z" transform="translate(-597.21 -454.19)"/><path class="cls-1" d="M1001.79,524.52c0-21.48.13-43-.12-64.46,0-4.77,1.53-6.05,6-5.85,7.32.31,14.66.23,22,0,3.86-.11,5.32,1.17,5.21,5.17-.24,9.49,0,19-.14,28.48-.06,3.1.91,4,4,3.92,11.16-.16,22.32.11,33.48-.16,4.28-.1,5.43,1.39,5.26,5.46-.28,7.31-.26,14.66,0,22,.14,3.84-1.32,4.86-4.94,4.8-10.49-.19-21,.29-31.48-.21-5.47-.27-6.42,1.63-6.32,6.59.31,15.66.12,31.32.11,47,0,9.88,5.66,15.65,15.73,15.77,9.32.12,18.66.24,28-.06,4.3-.15,5.41,1.38,5.26,5.44-.28,7.65-.12,15.32-.06,23,0,2.42-.26,4.44-3.32,4.37-15.31-.36-30.71,1.37-45.9-.82-19.73-2.85-32.54-18.08-32.68-37.93C1001.68,566.17,1001.8,545.34,1001.79,524.52Z" transform="translate(-597.21 -454.19)"/><path class="cls-1" d="M1300,580.39c0-5.81.4-10.48-.11-15-.56-5,1.66-5.84,5.83-5.39s6.41,2.69,6.42,6.79c0,12.81.25,25.63-.21,38.43-.37,10.43-6.27,16.27-16.54,18.1a33.35,33.35,0,0,1-13.36-.42c-10.44-2.34-16-11.53-15.5-25.24.58-15.16,5.73-22.35,17.23-24.11C1290.05,572.54,1295.13,574.72,1300,580.39Zm0,18.61a22.16,22.16,0,0,0-.93-7.37c-1.37-4.68-4.39-7.39-9.34-7.4s-8,2.59-9.44,7.28a25.42,25.42,0,0,0-.12,14.71c1.38,4.67,4.51,7.11,9.57,7C1296.51,613,1300,608.32,1300,599Z" transform="translate(-597.21 -454.19)"/><path class="cls-1" d="M1219.18,599.67c0,.55-.07,2-.18,3.53-1.31,17.67-18,27-33.67,18.51-9.22-5-10.52-13.93-10.47-23.19.05-9.07,1.36-17.85,10.44-22.69C1202.77,566.51,1219.15,577.64,1219.18,599.67Zm-32-1.15a22.74,22.74,0,0,0,1.83,9.7c1.55,3.36,4.22,4.92,7.92,5s6.49-1.67,7.82-5a25.39,25.39,0,0,0,.17-18.93,7.82,7.82,0,0,0-7.77-5.19,8.23,8.23,0,0,0-8,4.82A22.18,22.18,0,0,0,1187.17,598.52Z" transform="translate(-597.21 -454.19)"/><path class="cls-1" d="M1264.18,592.12c0,3.66-.11,7.33,0,11,.63,16.68-9.13,22-24.54,20.52-11.39-1.11-16.25-7.44-16.45-19.38-.15-8.82.11-17.64-.11-26.46-.08-3.18,1-3.86,4-3.86,8.42,0,8.42-.12,8.42,8.31,0,7.66-.07,15.31,0,23,.07,6.58,2.55,9.09,8.56,9,5.6-.11,7.9-2.7,7.93-9.09,0-8.15-.07-16.31,0-24.46.07-5.44,6.4-9,11.19-6.54,1.39.73.93,2,.94,3.06C1264.21,582.13,1264.18,587.13,1264.18,592.12Z" transform="translate(-597.21 -454.19)"/><path class="cls-1" d="M1109.82,598.47c-.07-18.84,11.23-28.31,29.23-24.44q10.07,2.16,13.37,12c.87,2.59.19,3.27-2.32,3.13-4.76-.27-9.43.89-13.57-3.67-3.42-3.77-10.31-1.47-12.45,3.47a23.82,23.82,0,0,0-.23,18.93,8.79,8.79,0,0,0,14.07,3.51c3.91-3.55,8.08-3.16,12.51-3.29,2.52-.08,2.76.87,2,3a20.17,20.17,0,0,1-5.77,8.59c-11.72,9.92-31.5,3.86-35.54-10.88A37.72,37.72,0,0,1,1109.82,598.47Z" transform="translate(-597.21 -454.19)"/><path class="cls-1" d="M1157.18,591.49c0-8.66-.13-17.32.1-26,0-1.84-2-4.9,2-5.52,5.16-.79,8.85.81,9.82,4.56a16.39,16.39,0,0,1,.32,4c0,16.65-.07,33.31.08,50,0,3.23-.44,4.71-4.23,4.61-8.14-.21-8.14,0-8.14-8.12Z" transform="translate(-597.21 -454.19)"/></svg>